<svg width="375" height="317" viewBox="0 0 375 317" fill="none" xmlns="http://www.w3.org/2000/svg">
<g style="mix-blend-mode:multiply">
<path d="M337.006 215.149L278.194 243.733L200.284 249.108L11.865 299.595C10.4813 299.966 9.02861 299.307 8.39646 298.021L0.326681 281.612L-11.756 252.075L-17.8123 229.472L-27.3123 194.018L-44.7686 128.87L-18.9241 68.2698L-12.0413 42.2005L-23.0075 1.27411C-23.4416 -0.346047 -22.463 -2.00739 -20.8355 -2.41322L52.8545 -20.7885L94.3488 -31.9068L147.087 -47.4631L234.984 -71.0148L290.309 -85.8393L335.375 -97.9146C336.134 -98.1181 336.925 -97.7147 337.206 -96.9802L377.832 -75.0909L392.082 -21.909L414.17 60.523L430.82 131.587L396.736 195.345L337.006 215.149Z" fill="url(#paint0_linear_256_2326)"/>
<path d="M52.8545 -20.7885L66.2188 25.0308M52.8545 -20.7885L94.3488 -31.9068M52.8545 -20.7885L-20.8355 -2.41322C-22.463 -2.00739 -23.4416 -0.346047 -23.0075 1.27411L-12.0413 42.2005M66.2188 25.0308L76.3706 59.8357L86.2395 101.129M66.2188 25.0308L105.389 16.4351M66.2188 25.0308L3.76672 38.7323M105.389 16.4351L94.3488 -31.9068M105.389 16.4351L158.664 -0.689792M105.389 16.4351L121.658 77.1511M94.3488 -31.9068L147.087 -47.4631M158.664 -0.689792L147.087 -47.4631M158.664 -0.689792L245.938 -28.3498M158.664 -0.689792L175.645 62.6853M147.087 -47.4631L234.984 -71.0148M245.938 -28.3498L234.984 -71.0148M245.938 -28.3498L305.876 -49.1602M245.938 -28.3498L261.584 28.2581M234.984 -71.0148L290.309 -85.8393M305.876 -49.1602L290.309 -85.8393M305.876 -49.1602L322.778 -5.71385M305.876 -49.1602L349.486 -64.8758M290.309 -85.8393L335.375 -97.9146C336.134 -98.1181 336.925 -97.7147 337.206 -96.9802V-96.9802M261.584 28.2581L175.645 62.6853M261.584 28.2581L288.05 96.6917M261.584 28.2581L315.812 7.55269M175.645 62.6853L121.658 77.1511M175.645 62.6853L187.34 109.902L196.487 136.901M121.658 77.1511L159.898 153.83M121.658 77.1511L86.2395 101.129M196.487 136.901L186.702 141.428M196.487 136.901L242.269 116.796M288.05 96.6917L340.508 74.7334M288.05 96.6917L242.269 116.796M288.05 96.6917L317.906 167.067M315.812 7.55269L319.165 -3.29408C319.47 -4.27922 320.259 -5.03892 321.255 -5.30579L322.778 -5.71385M315.812 7.55269L318.402 18.9679C318.436 19.1191 318.482 19.2673 318.539 19.4114L340.508 74.7334M337.199 -0.0781095L326.974 -5.93596C326.287 -6.32973 325.471 -6.43566 324.706 -6.23063L322.778 -5.71385M337.199 -0.0781095L392.082 -21.909M337.199 -0.0781095L363.727 65.0142M392.082 -21.909L414.17 60.523M392.082 -21.909L377.832 -75.0909M363.727 65.0142L340.508 74.7334M363.727 65.0142L414.17 60.523M363.727 65.0142L384.389 142.128M377.832 -75.0909L349.486 -64.8758M377.832 -75.0909L337.206 -96.9802M349.486 -64.8758L337.206 -96.9802M414.17 60.523L430.82 131.587M159.898 153.83L60.779 197.964M159.898 153.83L164.146 164.329L168.394 174.829M159.898 153.83L186.702 141.428M-12.0413 42.2005L3.76672 38.7323M-12.0413 42.2005L-18.9241 68.2698M3.76672 38.7323L8.66958 59.4511L10.8595 68.7056C10.949 69.0836 11.111 69.4407 11.3366 69.7569L50.8211 125.107M-18.9241 68.2698L-4.25208 135.114M-18.9241 68.2698L-44.7686 128.87M3.28699 202.919L6.44925 196.896C6.66027 196.494 6.77734 196.05 6.79164 195.596L7.06018 187.078C7.06799 186.83 7.04506 186.582 6.99191 186.34L-4.25208 135.114M3.28699 202.919L10.8939 217.031M3.28699 202.919L-10.6555 201.122C-10.9352 201.086 -11.2083 201.011 -11.467 200.898L-27.3123 194.018M10.8939 217.031L-17.8123 229.472M10.8939 217.031L13.9304 215.87M-17.8123 229.472L-11.756 252.075M-17.8123 229.472L-27.3123 194.018M-27.3123 194.018L-44.7686 128.87M-4.25208 135.114L-21.6443 138.42C-22.2386 138.533 -22.8533 138.464 -23.4076 138.221L-44.7686 128.87M-4.25208 135.114L50.8211 125.107M50.8211 125.107L50.5058 169.767C50.5032 170.131 50.5669 170.492 50.6937 170.834L60.779 197.964M50.8211 125.107L86.2395 101.129M60.779 197.964L13.9304 215.87M13.9304 215.87L18.5041 226.693L23.0779 237.516M23.0779 237.516L-11.756 252.075M23.0779 237.516L147.452 182.34L168.394 174.829M23.0779 237.516L35.7011 272.134M-11.756 252.075L0.326683 281.612M168.394 174.829L196.981 161.944M168.394 174.829L176.771 195.384M186.702 141.428L192.227 151.342L196.981 161.944M196.981 161.944L207.114 180.129M242.269 116.796L272.184 187.393M272.184 187.393L235.029 203.999M272.184 187.393L317.906 167.067M235.029 203.999L207.114 180.129M235.029 203.999L278.194 243.733M207.114 180.129L176.771 195.384M176.771 195.384L193.201 229.932M193.201 229.932L35.7011 272.134M193.201 229.932L200.284 249.108M317.906 167.067L384.389 142.128M317.906 167.067L337.006 215.149M384.389 142.128L430.82 131.587M384.389 142.128L396.736 195.345M430.82 131.587L396.736 195.345M337.006 215.149L278.194 243.733M337.006 215.149L396.736 195.345M278.194 243.733L200.284 249.108M35.7011 272.134L0.326683 281.612M0.326683 281.612L8.39646 298.021C9.02862 299.307 10.4813 299.966 11.865 299.595L200.284 249.108" stroke="url(#paint1_linear_256_2326)" stroke-width="8" stroke-linecap="round" stroke-linejoin="round"/>
</g>
<g style="mix-blend-mode:multiply">
<path d="M337.006 215.149L278.194 243.733L200.284 249.108L11.865 299.595C10.4813 299.966 9.02861 299.307 8.39646 298.021L0.326681 281.612L-11.756 252.075L-17.8123 229.472L-27.3123 194.018L-44.7686 128.87L-18.9241 68.2698L-12.0413 42.2005L-23.0075 1.27411C-23.4416 -0.346047 -22.463 -2.00739 -20.8355 -2.41322L52.8545 -20.7885L94.3488 -31.9068L147.087 -47.4631L234.984 -71.0148L290.309 -85.8393L335.375 -97.9146C336.134 -98.1181 336.925 -97.7147 337.206 -96.9802L377.832 -75.0909L392.082 -21.909L414.17 60.523L430.82 131.587L396.736 195.345L337.006 215.149Z" fill="url(#paint2_linear_256_2326)"/>
<path d="M52.8545 -20.7885L66.2188 25.0308M52.8545 -20.7885L94.3488 -31.9068M52.8545 -20.7885L-20.8355 -2.41322C-22.463 -2.00739 -23.4416 -0.346047 -23.0075 1.27411L-12.0413 42.2005M66.2188 25.0308L76.3706 59.8357L86.2395 101.129M66.2188 25.0308L105.389 16.4351M66.2188 25.0308L3.76672 38.7323M105.389 16.4351L94.3488 -31.9068M105.389 16.4351L158.664 -0.689792M105.389 16.4351L121.658 77.1511M94.3488 -31.9068L147.087 -47.4631M158.664 -0.689792L147.087 -47.4631M158.664 -0.689792L245.938 -28.3498M158.664 -0.689792L175.645 62.6853M147.087 -47.4631L234.984 -71.0148M245.938 -28.3498L234.984 -71.0148M245.938 -28.3498L305.876 -49.1602M245.938 -28.3498L261.584 28.2581M234.984 -71.0148L290.309 -85.8393M305.876 -49.1602L290.309 -85.8393M305.876 -49.1602L322.778 -5.71385M305.876 -49.1602L349.486 -64.8758M290.309 -85.8393L335.375 -97.9146C336.134 -98.1181 336.925 -97.7147 337.206 -96.9802V-96.9802M261.584 28.2581L175.645 62.6853M261.584 28.2581L288.05 96.6917M261.584 28.2581L315.812 7.55269M175.645 62.6853L121.658 77.1511M175.645 62.6853L187.34 109.902L196.487 136.901M121.658 77.1511L159.898 153.83M121.658 77.1511L86.2395 101.129M196.487 136.901L186.702 141.428M196.487 136.901L242.269 116.796M288.05 96.6917L340.508 74.7334M288.05 96.6917L242.269 116.796M288.05 96.6917L317.906 167.067M315.812 7.55269L319.165 -3.29408C319.47 -4.27922 320.259 -5.03892 321.255 -5.30579L322.778 -5.71385M315.812 7.55269L318.402 18.9679C318.436 19.1191 318.482 19.2673 318.539 19.4114L340.508 74.7334M337.199 -0.0781095L326.974 -5.93596C326.287 -6.32973 325.471 -6.43566 324.706 -6.23063L322.778 -5.71385M337.199 -0.0781095L392.082 -21.909M337.199 -0.0781095L363.727 65.0142M392.082 -21.909L414.17 60.523M392.082 -21.909L377.832 -75.0909M363.727 65.0142L340.508 74.7334M363.727 65.0142L414.17 60.523M363.727 65.0142L384.389 142.128M377.832 -75.0909L349.486 -64.8758M377.832 -75.0909L337.206 -96.9802M349.486 -64.8758L337.206 -96.9802M414.17 60.523L430.82 131.587M159.898 153.83L60.779 197.964M159.898 153.83L164.146 164.329L168.394 174.829M159.898 153.83L186.702 141.428M-12.0413 42.2005L3.76672 38.7323M-12.0413 42.2005L-18.9241 68.2698M3.76672 38.7323L8.66958 59.4511L10.8595 68.7056C10.949 69.0836 11.111 69.4407 11.3366 69.7569L50.8211 125.107M-18.9241 68.2698L-4.25208 135.114M-18.9241 68.2698L-44.7686 128.87M3.28699 202.919L6.44925 196.896C6.66027 196.494 6.77734 196.05 6.79164 195.596L7.06018 187.078C7.06799 186.83 7.04506 186.582 6.99191 186.34L-4.25208 135.114M3.28699 202.919L10.8939 217.031M3.28699 202.919L-10.6555 201.122C-10.9352 201.086 -11.2083 201.011 -11.467 200.898L-27.3123 194.018M10.8939 217.031L-17.8123 229.472M10.8939 217.031L13.9304 215.87M-17.8123 229.472L-11.756 252.075M-17.8123 229.472L-27.3123 194.018M-27.3123 194.018L-44.7686 128.87M-4.25208 135.114L-21.6443 138.42C-22.2386 138.533 -22.8533 138.464 -23.4076 138.221L-44.7686 128.87M-4.25208 135.114L50.8211 125.107M50.8211 125.107L50.5058 169.767C50.5032 170.131 50.5669 170.492 50.6937 170.834L60.779 197.964M50.8211 125.107L86.2395 101.129M60.779 197.964L13.9304 215.87M13.9304 215.87L18.5041 226.693L23.0779 237.516M23.0779 237.516L-11.756 252.075M23.0779 237.516L147.452 182.34L168.394 174.829M23.0779 237.516L35.7011 272.134M-11.756 252.075L0.326683 281.612M168.394 174.829L196.981 161.944M168.394 174.829L176.771 195.384M186.702 141.428L192.227 151.342L196.981 161.944M196.981 161.944L207.114 180.129M242.269 116.796L272.184 187.393M272.184 187.393L235.029 203.999M272.184 187.393L317.906 167.067M235.029 203.999L207.114 180.129M235.029 203.999L278.194 243.733M207.114 180.129L176.771 195.384M176.771 195.384L193.201 229.932M193.201 229.932L35.7011 272.134M193.201 229.932L200.284 249.108M317.906 167.067L384.389 142.128M317.906 167.067L337.006 215.149M384.389 142.128L430.82 131.587M384.389 142.128L396.736 195.345M430.82 131.587L396.736 195.345M337.006 215.149L278.194 243.733M337.006 215.149L396.736 195.345M278.194 243.733L200.284 249.108M35.7011 272.134L0.326683 281.612M0.326683 281.612L8.39646 298.021C9.02862 299.307 10.4813 299.966 11.865 299.595L200.284 249.108" stroke="url(#paint3_linear_256_2326)" stroke-width="8" stroke-linecap="round" stroke-linejoin="round"/>
</g>
<g style="mix-blend-mode:multiply">
<path d="M337.006 215.149L278.194 243.733L200.284 249.108L11.865 299.595C10.4813 299.966 9.02861 299.307 8.39646 298.021L0.326681 281.612L-11.756 252.075L-17.8123 229.472L-27.3123 194.018L-44.7686 128.87L-18.9241 68.2698L-12.0413 42.2005L-23.0075 1.27411C-23.4416 -0.346047 -22.463 -2.00739 -20.8355 -2.41322L52.8545 -20.7885L94.3488 -31.9068L147.087 -47.4631L234.984 -71.0148L290.309 -85.8393L335.375 -97.9146C336.134 -98.1181 336.925 -97.7147 337.206 -96.9802L377.832 -75.0909L392.082 -21.909L414.17 60.523L430.82 131.587L396.736 195.345L337.006 215.149Z" fill="url(#paint4_linear_256_2326)"/>
<path d="M52.8545 -20.7885L66.2188 25.0308M52.8545 -20.7885L94.3488 -31.9068M52.8545 -20.7885L-20.8355 -2.41322C-22.463 -2.00739 -23.4416 -0.346047 -23.0075 1.27411L-12.0413 42.2005M66.2188 25.0308L76.3706 59.8357L86.2395 101.129M66.2188 25.0308L105.389 16.4351M66.2188 25.0308L3.76672 38.7323M105.389 16.4351L94.3488 -31.9068M105.389 16.4351L158.664 -0.689792M105.389 16.4351L121.658 77.1511M94.3488 -31.9068L147.087 -47.4631M158.664 -0.689792L147.087 -47.4631M158.664 -0.689792L245.938 -28.3498M158.664 -0.689792L175.645 62.6853M147.087 -47.4631L234.984 -71.0148M245.938 -28.3498L234.984 -71.0148M245.938 -28.3498L305.876 -49.1602M245.938 -28.3498L261.584 28.2581M234.984 -71.0148L290.309 -85.8393M305.876 -49.1602L290.309 -85.8393M305.876 -49.1602L322.778 -5.71385M305.876 -49.1602L349.486 -64.8758M290.309 -85.8393L335.375 -97.9146C336.134 -98.1181 336.925 -97.7147 337.206 -96.9802V-96.9802M261.584 28.2581L175.645 62.6853M261.584 28.2581L288.05 96.6917M261.584 28.2581L315.812 7.55269M175.645 62.6853L121.658 77.1511M175.645 62.6853L187.34 109.902L196.487 136.901M121.658 77.1511L159.898 153.83M121.658 77.1511L86.2395 101.129M196.487 136.901L186.702 141.428M196.487 136.901L242.269 116.796M288.05 96.6917L340.508 74.7334M288.05 96.6917L242.269 116.796M288.05 96.6917L317.906 167.067M315.812 7.55269L319.165 -3.29408C319.47 -4.27922 320.259 -5.03892 321.255 -5.30579L322.778 -5.71385M315.812 7.55269L318.402 18.9679C318.436 19.1191 318.482 19.2673 318.539 19.4114L340.508 74.7334M337.199 -0.0781095L326.974 -5.93596C326.287 -6.32973 325.471 -6.43566 324.706 -6.23063L322.778 -5.71385M337.199 -0.0781095L392.082 -21.909M337.199 -0.0781095L363.727 65.0142M392.082 -21.909L414.17 60.523M392.082 -21.909L377.832 -75.0909M363.727 65.0142L340.508 74.7334M363.727 65.0142L414.17 60.523M363.727 65.0142L384.389 142.128M377.832 -75.0909L349.486 -64.8758M377.832 -75.0909L337.206 -96.9802M349.486 -64.8758L337.206 -96.9802M414.17 60.523L430.82 131.587M159.898 153.83L60.779 197.964M159.898 153.83L164.146 164.329L168.394 174.829M159.898 153.83L186.702 141.428M-12.0413 42.2005L3.76672 38.7323M-12.0413 42.2005L-18.9241 68.2698M3.76672 38.7323L8.66958 59.4511L10.8595 68.7056C10.949 69.0836 11.111 69.4407 11.3366 69.7569L50.8211 125.107M-18.9241 68.2698L-4.25208 135.114M-18.9241 68.2698L-44.7686 128.87M3.28699 202.919L6.44925 196.896C6.66027 196.494 6.77734 196.05 6.79164 195.596L7.06018 187.078C7.06799 186.83 7.04506 186.582 6.99191 186.34L-4.25208 135.114M3.28699 202.919L10.8939 217.031M3.28699 202.919L-10.6555 201.122C-10.9352 201.086 -11.2083 201.011 -11.467 200.898L-27.3123 194.018M10.8939 217.031L-17.8123 229.472M10.8939 217.031L13.9304 215.87M-17.8123 229.472L-11.756 252.075M-17.8123 229.472L-27.3123 194.018M-27.3123 194.018L-44.7686 128.87M-4.25208 135.114L-21.6443 138.42C-22.2386 138.533 -22.8533 138.464 -23.4076 138.221L-44.7686 128.87M-4.25208 135.114L50.8211 125.107M50.8211 125.107L50.5058 169.767C50.5032 170.131 50.5669 170.492 50.6937 170.834L60.779 197.964M50.8211 125.107L86.2395 101.129M60.779 197.964L13.9304 215.87M13.9304 215.87L18.5041 226.693L23.0779 237.516M23.0779 237.516L-11.756 252.075M23.0779 237.516L147.452 182.34L168.394 174.829M23.0779 237.516L35.7011 272.134M-11.756 252.075L0.326683 281.612M168.394 174.829L196.981 161.944M168.394 174.829L176.771 195.384M186.702 141.428L192.227 151.342L196.981 161.944M196.981 161.944L207.114 180.129M242.269 116.796L272.184 187.393M272.184 187.393L235.029 203.999M272.184 187.393L317.906 167.067M235.029 203.999L207.114 180.129M235.029 203.999L278.194 243.733M207.114 180.129L176.771 195.384M176.771 195.384L193.201 229.932M193.201 229.932L35.7011 272.134M193.201 229.932L200.284 249.108M317.906 167.067L384.389 142.128M317.906 167.067L337.006 215.149M384.389 142.128L430.82 131.587M384.389 142.128L396.736 195.345M430.82 131.587L396.736 195.345M337.006 215.149L278.194 243.733M337.006 215.149L396.736 195.345M278.194 243.733L200.284 249.108M35.7011 272.134L0.326683 281.612M0.326683 281.612L8.39646 298.021C9.02862 299.307 10.4813 299.966 11.865 299.595L200.284 249.108" stroke="url(#paint5_linear_256_2326)" stroke-width="8" stroke-linecap="round" stroke-linejoin="round"/>
</g>
<defs>
<linearGradient id="paint0_linear_256_2326" x1="146.641" y1="-47.3435" x2="228.223" y2="257.123" gradientUnits="userSpaceOnUse">
<stop stop-color="#FFF7E2"/>
<stop offset="1" stop-color="white"/>
</linearGradient>
<linearGradient id="paint1_linear_256_2326" x1="183.992" y1="90.2945" x2="200.599" y2="154.025" gradientUnits="userSpaceOnUse">
<stop stop-color="white"/>
<stop offset="1" stop-color="white"/>
</linearGradient>
<linearGradient id="paint2_linear_256_2326" x1="146.641" y1="-47.3435" x2="228.223" y2="257.123" gradientUnits="userSpaceOnUse">
<stop stop-color="#FFF7E2"/>
<stop offset="1" stop-color="white"/>
</linearGradient>
<linearGradient id="paint3_linear_256_2326" x1="183.992" y1="90.2945" x2="200.599" y2="154.025" gradientUnits="userSpaceOnUse">
<stop stop-color="white"/>
<stop offset="1" stop-color="white"/>
</linearGradient>
<linearGradient id="paint4_linear_256_2326" x1="146.641" y1="-47.3435" x2="228.223" y2="257.123" gradientUnits="userSpaceOnUse">
<stop stop-color="#FFF7E2"/>
<stop offset="1" stop-color="white"/>
</linearGradient>
<linearGradient id="paint5_linear_256_2326" x1="183.992" y1="90.2945" x2="200.599" y2="154.025" gradientUnits="userSpaceOnUse">
<stop stop-color="white"/>
<stop offset="1" stop-color="white"/>
</linearGradient>
</defs>
</svg>
